<?xml version="1.0" standalone="no"?>
<!DOCTYPE svg PUBLIC "-//W3C//DTD SVG 20010904//EN"
 "http://www.w3.org/TR/2001/REC-SVG-20010904/DTD/svg10.dtd">
<svg version="1.0" xmlns="http://www.w3.org/2000/svg"
 width="192.000000pt" height="192.000000pt" viewBox="0 0 192.000000 192.000000"
 preserveAspectRatio="xMidYMid meet">
<metadata>
Created by potrace 1.11, written by Peter Selinger 2001-2013
</metadata>
<g transform="translate(0.000000,192.000000) scale(0.100000,-0.100000)"
fill="#000000" stroke="none">
<path d="M844 1830 c-347 -49 -625 -291 -731 -637 -24 -79 -26 -104 -26 -238
0 -134 2 -159 26 -238 51 -166 127 -289 250 -403 167 -155 369 -234 597 -234
228 0 430 79 597 234 123 114 199 237 250 403 24 79 26 104 26 238 0 134 -2
159 -26 238 -96 313 -324 536 -630 616 -90 23 -246 33 -333 21z m-44 -870 l0
-620 -50 0 -50 0 -2 618 -3 617 -2 -617 -3 -618 -45 0 -45 0 -2 618 -3 617 -2
-617 -3 -618 -50 0 -50 0 0 620 0 620 155 0 155 0 0 -620z m630 520 l0 -100
-267 -2 -268 -3 268 -2 267 -3 0 -50 0 -50 -265 0 -265 0 0 -105 0 -105 250 0
250 0 0 -50 0 -50 -252 -2 -253 -3 253 -2 252 -3 0 -45 0 -45 -252 -2 -253 -3
253 -2 252 -3 0 -50 0 -50 -250 0 -250 0 0 -205 0 -205 -45 0 -45 0 0 620 0
620 310 0 310 0 0 -100z"/>
</g>
</svg>
